<svg width="26" height="20" viewBox="0 0 26 20" fill="none" xmlns="http://www.w3.org/2000/svg">
<path d="M1.77272 19.5046H5.90911V9.45916L3.20054 4.72949L0 5.02732V17.7319C0 18.7113 0.793305 19.5046 1.77272 19.5046Z" fill="#0085F7"/>
<path d="M20.0908 19.5046H24.2272C25.2066 19.5046 25.9999 18.7113 25.9999 17.7319V5.02732L22.804 4.72949L20.0909 9.45916V19.5046H20.0908Z" fill="#00A94B"/>
<path d="M20.0909 1.77749L17.6611 6.41397L20.0909 9.45932L26 5.02749V2.66388C26 0.473071 23.4989 -0.77818 21.7454 0.536598L20.0909 1.77749Z" fill="#FFBC00"/>
<path fillRule="evenodd" clipRule="evenodd" d="M5.90902 9.45918L3.59375 4.56843L5.90902 1.77734L12.9999 7.09551L20.0908 1.77734V9.45918L12.9999 14.7773L5.90902 9.45918Z" fill="#FF4131"/>
<path d="M0 2.66388V5.02749L5.90911 9.45932V1.77749L4.25455 0.536598C2.50103 -0.77818 0 0.473071 0 2.66388Z" fill="#E51C19"/>
</svg>
